<?xml version="1.0" encoding="UTF-8"?>
<svg width="40px" height="40px" viewBox="0 0 40 40" version="1.1" xmlns="http://www.w3.org/2000/svg" xmlns:xlink="http://www.w3.org/1999/xlink">
    <!-- Generator: Sketch 55.2 (78181) - https://sketchapp.com -->
    <title>Artboard</title>
    <desc>Created with Sketch.</desc>
    <g id="Artboard" stroke="none" stroke-width="1" fill="none" fill-rule="evenodd">
        <g id="shutterstock_1339873997" transform="translate(4.000000, 1.000000)"></g>
        <path d="M27.5339102,35.7997683 C28.2491135,35.4220642 28.7044768,34.9888081 28.9,34.5 C28.9648172,34.3379571 28.9961555,34.2054543 28.994015,34.1024916 C29.106373,33.4951371 29.1517437,32.7258779 30.3228729,31.8638674 C30.741989,31.5554696 31.7704972,29.679558 30.0763536,29.5535912 C29.7319337,29.5280663 27.2531492,28.2970166 27.041768,27.4689503 C26.7858564,26.4669613 25.3700552,27.5871823 24.6447514,25.5537017 C24.218674,24.3590055 18.2960221,26.3151381 18.1030939,23.6929282 C18.0497238,22.9682873 15.599558,24.1966851 15.8640884,22.0466298 C16.0320442,20.681989 13.2245304,23.8540331 13.2245304,20.0053039 C13.9976796,20.0053039 16.5540331,17.9903867 17.2356906,20.5434254 C17.7946961,22.6367956 20.878232,20.721105 18.778453,19.7249724 C18.62,19.6498343 17.6363536,18.6458564 19.0681768,18.4080663 C20.361547,18.1931492 18.2555801,16.3612155 20.3531492,15.9001105 C22.1080663,15.5142541 20.8922652,13.841547 22.9759116,13.6781215 C23.2346961,13.6577901 24.0794475,14.8385635 24.1009945,13.4372376 C24.1156906,12.4856354 22.898232,14.0161326 22.778453,12.0374586 C22.7352486,11.3261878 21.241105,12.4228729 22.1519337,11.000884 C22.2770166,10.8054144 25.7963536,10.3675138 24.3531492,11.3563536 C22.1312707,12.8787845 28.7483978,14.0785635 25.5327072,12.0544751 C25.2138122,11.8535912 26.7945856,9.82110497 24.3475138,9.1401105 C23.1116022,8.7961326 23.4871823,5.73569061 22.1970166,7.02729282 C21.5996685,7.62541436 20.0366851,4.02707182 19.0362431,6.84099448 C18.9701657,7.02685083 19.3270718,6.89458564 19.0362431,8.00375691 C18.6216575,9.58486188 19.7922652,8.21712707 18.0089503,10.4307182 C17.6743646,10.8460773 17.4941436,12.3267403 17.4445304,9.85314917 C17.4056354,7.91270718 13.0897238,8.71248619 14.4075138,6.89944751 C14.7892818,6.5278453 14.8614365,5.9201105 15.6637569,5.46375691 C16.259779,5.12475138 16.5543646,3.02220994 17.0681768,3.87767956 C17.1725967,4.05160221 16.8359116,6.05226519 18.0041989,4.85414365 C18.4359116,4.41149171 17.4059669,4.16497238 17.4059669,3.34530387 C17.7296133,3.18066298 17.5296133,3.46486188 18.1992265,2.98298343 C18.6003315,2.69436464 18.219337,2.86099448 18.7232044,2.70165746 C18.8447782,2.66322798 18.9329719,2.6464877 19,2.64328986 L18.9999994,2.52809281 C12.9213349,2.87053676 7.67191267,6.31536816 4.80975603,11.3045637 C5.31413856,11.8731589 5.17750201,11.7804277 5.38265193,14.4626519 C5.47348066,15.6483978 6.27900552,16.2760221 6.59060773,18.058011 C6.79911602,19.2509392 10.4224309,23.3556906 10.4756906,21.7607735 C10.4904972,21.3177901 7.18861878,18.6906077 9.79469613,19.5556906 C11.318011,20.0614365 9.8080663,23.1974586 14.0711602,23.4238674 C15.2629834,23.4871823 14.2690608,24.2060773 16.3909392,24.4774586 C16.7534807,24.5237569 16.159558,25.419779 18.3834254,25.7342541 C20.6577901,26.0560221 17.7459669,29.7948066 19.4350276,30.9645304 C20.8443094,31.9405525 21.2513812,33.8805525 20.6711602,35.5403315 C20.5102252,36.0004652 20.2847121,36.7544834 20.1953208,37.4989325 C22.4864559,37.4738761 24.6719284,37.008537 26.6711272,36.183533 C26.6717263,36.1828274 26.6723256,36.182122 26.6729251,36.1814167 C26.6857316,36.1766035 26.6984853,36.1717791 26.7111865,36.1669434 C26.9891198,36.0514374 27.2634335,35.9289733 27.5339102,35.7997683 Z M36.264943,26.4703095 C37.0618427,24.4688201 37.5,22.2855786 37.5,20 C37.5,18.2561152 37.2449218,16.571807 36.7700404,14.9823506 C35.6748884,15.316248 35.0196803,15.9161927 35.7295028,16.1477348 C37.5030939,16.7264088 36.4377901,20.158232 35.1367956,21.3875138 C33.9713427,22.488898 34.6143301,25.0990606 36.264943,26.4703095 Z M20,40 C8.954305,40 0,31.045695 0,20 C0,8.954305 8.954305,0 20,0 C31.045695,0 40,8.954305 40,20 C40,31.045695 31.045695,40 20,40 Z" id="Combined-Shape" fill="#8D8D8D"></path>
    </g>
</svg>