<?xml version="1.0" encoding="UTF-8"?>
<svg width="30px" height="30px" viewBox="0 0 30 30" version="1.1" xmlns="http://www.w3.org/2000/svg" xmlns:xlink="http://www.w3.org/1999/xlink">
    <!-- Generator: Sketch 52 (66869) - http://www.bohemiancoding.com/sketch -->
    <title>Artboard Copy 18</title>
    <desc>Created with Sketch.</desc>
    <g id="Artboard-Copy-18" stroke="none" stroke-width="1" fill="none" fill-rule="evenodd">
        <g id="contact-active" transform="translate(0.000000, 5.000000)" fill="#FFFFFF">
            <path d="M8.55407049,15.7655117 C7.10002771,17.6270073 0.007,18.346 0.007,18.346 C2.45136645,17.8752804 4.529858,16.3040675 5.6545773,14.1064754 C3.92843491,12.7144765 2.878,10.872826 2.878,8.853 C2.878,4.512 7.729,0.993 13.714,0.993 C19.699,0.993 24.55,4.512 24.55,8.853 C24.55,13.194 19.698,16.712 13.714,16.712 C11.8459908,16.712 10.0882932,16.3691764 8.55407049,15.7655117 Z" id="Shape_24_copy"></path>
            <path d="M26.9221146,18.7431842 C26.9596265,19.3272134 27.3543722,20.2174743 29.107,20.993 C29.107,20.993 25.5424327,20.6823267 24.5994918,19.5063168 C23.967433,19.6266681 23.3012135,19.691 22.613,19.691 C20.467797,19.7530667 18.3736043,19.0305879 16.723,17.659 C21.699,16.832 25.41,13.718 25.47,9.981 C28.13,10.746 29.999,12.543 29.999,14.64 C29.9996058,16.3302579 28.7860876,17.8263588 26.9221146,18.7431842 Z" id="Shape_24_copy-2" opacity="0.600000024" style="mix-blend-mode: luminosity;"></path>
        </g>
    </g>
</svg>