<?xml version="1.0" encoding="UTF-8"?>
<svg width="37px" height="36px" viewBox="0 0 37 36" version="1.1" xmlns="http://www.w3.org/2000/svg" xmlns:xlink="http://www.w3.org/1999/xlink">
    <!-- Generator: Sketch 55.2 (78181) - https://sketchapp.com -->
    <title>Artboard Copy 6</title>
    <desc>Created with Sketch.</desc>
    <g id="Artboard-Copy-6" stroke="none" stroke-width="1" fill="none" fill-rule="evenodd">
        <g id="chat">
            <rect id="Rectangle-Copy-2" x="0" y="0" width="37" height="36"></rect>
            <path d="M11.9217875,23.3866157 C10.4677447,25.2481113 3.374717,25.967104 3.374717,25.967104 C5.81908345,25.4963844 7.897575,23.9251715 9.0222943,21.7275794 C7.29615191,20.3355805 6.245717,18.49393 6.245717,16.474104 C6.245717,12.133104 11.096717,8.614104 17.081717,8.614104 C23.066717,8.614104 27.917717,12.133104 27.917717,16.474104 C27.917717,20.815104 23.065717,24.333104 17.081717,24.333104 C15.2137078,24.333104 13.4560102,23.9902804 11.9217875,23.3866157 Z" id="Combined-Shape" fill="#000000" fill-rule="nonzero" opacity="0.300000012"></path>
            <path d="M30.2898316,26.3642882 C30.3273435,26.9483174 30.7220892,27.8385783 32.474717,28.614104 C32.474717,28.614104 28.9101497,28.3034307 27.9672088,27.1274208 C27.33515,27.2477721 26.6689305,27.312104 25.980717,27.312104 C23.835514,27.3741707 21.7413213,26.6516919 20.090717,25.280104 C25.066717,24.453104 28.777717,21.339104 28.837717,17.603104 C31.497717,18.367104 33.3667174,20.164104 33.3667174,22.261104 C33.3673229,23.9513619 32.1538047,25.4474628 30.2898316,26.3642882 Z" id="Combined-Shape" fill="#000000" fill-rule="nonzero" opacity="0.200000003"></path>
        </g>
    </g>
</svg>